<svg width="40.5" height="40.5" viewBox="0 0 40.5 40.5" xmlns="http://www.w3.org/2000/svg">
  <!-- Box border - blueish hover color -->
  <rect x="0.5" y="0.5" width="39.5" height="39.5" fill="none" stroke="#50c8ff" stroke-width="1"/>
  <!-- Gear shape - blueish hover color (matches edit exif user comment dialog) -->
  <path fill="#50c8ff" fill-rule="evenodd" d="M 18.225 8.7 L 16.05 3.9 L 24.45 3.9 L 22.275 8.7 L 27.9 11.475 L 30.6 6.75 L 35.1 13.5 L 30.6 14.625 L 31.95 21.75 L 37.125 20.625 L 35.2575 29.4 L 31.95 26.025 L 27.075 32.075 L 31.1175 35.25 L 23.625 38.025 L 23.475 32.25 L 17.025 32.25 L 16.875 38.025 L 9.3825 35.25 L 13.425 32.075 L 8.55 26.025 L 5.2425 29.4 L 3.375 20.625 L 8.55 21.75 L 9.9 14.625 L 5.4 13.5 L 9.9 6.75 L 12.6 11.475 Z M 20.25 20.25 m -5.175 0 a 5.175 5.175 0 1 0 10.35 0 a 5.175 5.175 0 1 0 -10.35 0 Z"/>
</svg>
